<svg width="20" height="20" viewBox="0 0 20 20" fill="none" xmlns="http://www.w3.org/2000/svg">
<path d="M10.2205 3.52061e-05C6.74668 -0.0092671 3.68974 1.82561 1.94259 4.5977C1.86514 4.72096 1.9517 4.88375 2.09521 4.88375H3.69657C3.80591 4.88375 3.90842 4.83491 3.97676 4.74886C4.13621 4.55119 4.30705 4.36049 4.487 4.1791C5.2296 3.42329 6.09292 2.82794 7.0542 2.41398C8.04736 1.98608 9.1043 1.76747 10.1954 1.76747C11.2865 1.76747 12.3435 1.98375 13.3366 2.41398C14.2979 2.82794 15.1612 3.42329 15.9038 4.1791C16.6464 4.93491 17.2273 5.8163 17.635 6.79537C18.0564 7.80932 18.2683 8.88607 18.2683 10C18.2683 11.114 18.0542 12.1907 17.635 13.2047C17.2296 14.1837 16.6464 15.0651 15.9038 15.8209C15.1612 16.5768 14.2979 17.1721 13.3366 17.5861C12.3427 18.0147 11.2744 18.2345 10.1954 18.2326C9.1043 18.2326 8.04736 18.014 7.0542 17.5861C6.09481 17.1725 5.22301 16.5731 4.487 15.8209C4.30705 15.6372 4.13849 15.4465 3.97676 15.2512C3.90842 15.1651 3.80363 15.1163 3.69657 15.1163H2.09521C1.9517 15.1163 1.86287 15.2791 1.94259 15.4023C3.68746 18.1674 6.73073 20 10.1954 20C15.5758 20 19.9448 15.5791 19.9995 10.1023C20.0542 4.53724 15.6783 0.0139887 10.2205 3.52061e-05ZM7.33483 12.6047V10.8372H0.182232C0.0820043 10.8372 0 10.7535 0 10.6512V9.34886C0 9.24653 0.0820043 9.16281 0.182232 9.16281H7.33483V7.39537C7.33483 7.23956 7.51251 7.15119 7.63096 7.24886L10.8633 9.85351C10.8851 9.87091 10.9027 9.89315 10.9148 9.91853C10.9269 9.94391 10.9332 9.97178 10.9332 10C10.9332 10.0283 10.9269 10.0561 10.9148 10.0815C10.9027 10.1069 10.8851 10.1291 10.8633 10.1465L7.63096 12.7512C7.51251 12.8465 7.33483 12.7605 7.33483 12.6047Z" fill="white"/>
</svg>
